<?xml version="1.0" encoding="utf-8"?>
<!-- Generator: Adobe Illustrator 27.5.0, SVG Export Plug-In . SVG Version: 6.00 Build 0)  -->
<svg version="1.1" xmlns="http://www.w3.org/2000/svg" xmlns:xlink="http://www.w3.org/1999/xlink" x="0px" y="0px"
	 viewBox="0 0 1200 1200" style="enable-background:new 0 0 1200 1200;" xml:space="preserve">
<g id="background">
	<rect y="0" style="fill:#FFFFFF;" width="1200" height="1200"/>
</g>
<g id="Object">
	<g>
		<linearGradient id="SVGID_1_" gradientUnits="userSpaceOnUse" x1="600" y1="986.2908" x2="600" y2="661.9822">
			<stop  offset="0" style="stop-color:#FFFFFF"/>
			<stop  offset="0.0868" style="stop-color:#F4F4F4"/>
			<stop  offset="0.2413" style="stop-color:#D5D5D5"/>
			<stop  offset="0.4455" style="stop-color:#A4A4A4"/>
			<stop  offset="0.6918" style="stop-color:#5F5F5F"/>
			<stop  offset="0.9711" style="stop-color:#090909"/>
			<stop  offset="1" style="stop-color:#000000"/>
		</linearGradient>
		<polygon style="opacity:0.8;fill:url(#SVGID_1_);" points="889.546,968.516 304.356,968.516 248.078,841.271 951.922,841.271 		
			"/>
		<g>
			<g>
				
					<linearGradient id="SVGID_00000004517166750448282970000013408499754243707280_" gradientUnits="userSpaceOnUse" x1="172.5389" y1="510.3993" x2="1027.4615" y2="510.3993">
					<stop  offset="0" style="stop-color:#BA973B"/>
					<stop  offset="0.1231" style="stop-color:#A57D24"/>
					<stop  offset="0.3327" style="stop-color:#F1DD80"/>
					<stop  offset="0.6098" style="stop-color:#F1DD80"/>
					<stop  offset="0.672" style="stop-color:#DABF64"/>
					<stop  offset="0.7479" style="stop-color:#C3A348"/>
					<stop  offset="0.8235" style="stop-color:#B28E34"/>
					<stop  offset="0.8977" style="stop-color:#A88128"/>
					<stop  offset="0.9689" style="stop-color:#A57D24"/>
				</linearGradient>
				<path style="fill:url(#SVGID_00000004517166750448282970000013408499754243707280_);" d="M1008.413,495.793
					c-10.52,0-19.049,9.857-19.049,22.015c0,6.75,2.635,12.783,6.773,16.821c-19.372,26.15-40.997,53.246-65.065,80.433
					c-30.792,34.784-60.5,64.024-87.989,88.534c-9.106-54.55-17.534-113.243-24.68-175.808
					c-4.557-39.894-8.255-78.486-11.255-115.678c10.469-0.069,18.938-9.892,18.938-22.008c0-12.159-8.528-22.015-19.049-22.015
					c-10.52,0-19.049,9.857-19.049,22.015c0,6.81,2.677,12.894,6.879,16.932c-15.062,32.606-32.148,66.811-51.577,101.884
					c-20.198,36.462-40.251,69.067-59.488,98.038c-14.586-51.835-28.975-106.949-42.793-165.262
					c-11.093-46.813-26.869-122.409-35.252-162.847c7.706-2.821,13.292-11.147,13.292-20.986c0-12.159-8.528-22.014-19.049-22.014
					c-10.521,0-19.049,9.855-19.049,22.014c0,9.839,5.586,18.165,13.292,20.986c-8.384,40.438-24.159,116.035-35.253,162.847
					c-13.818,58.313-28.207,113.426-42.793,165.262c-19.237-28.97-39.289-61.575-59.488-98.038
					c-18.924-34.161-35.628-67.502-50.403-99.343c6.049-3.689,10.177-11.021,10.177-19.474c0-12.159-8.529-22.015-19.049-22.015
					c-10.521,0-19.049,9.857-19.049,22.015c0,10.35,6.189,19.009,14.518,21.362c-3.009,37.39-6.724,76.198-11.307,116.324
					c-7.147,62.565-15.574,121.258-24.68,175.808c-27.489-24.51-57.197-53.75-87.989-88.534
					c-24.018-27.132-45.603-54.172-64.946-80.273c4.068-4.038,6.655-10.013,6.655-16.696c0-12.159-8.529-22.015-19.049-22.015
					c-10.521,0-19.049,9.857-19.049,22.015c0,12.159,8.529,22.015,19.049,22.015c1.502,0,2.957-0.222,4.359-0.602
					c6.934,35.263,13.535,73.047,19.442,113.297c6.847,46.645,11.938,90.871,15.708,132.147H600h368.902
					c3.77-41.276,8.862-85.502,15.708-132.147c5.923-40.352,12.542-78.227,19.495-113.567c1.386,0.371,2.823,0.586,4.307,0.586
					c10.521,0,19.049-9.855,19.049-22.014C1027.462,505.65,1018.933,495.793,1008.413,495.793z"/>
				
					<linearGradient id="SVGID_00000095319971384207012510000009079436231577249943_" gradientUnits="userSpaceOnUse" x1="232.4651" y1="826.4141" x2="969.6336" y2="826.4141">
					<stop  offset="0" style="stop-color:#BA973B"/>
					<stop  offset="0.1231" style="stop-color:#A57D24"/>
					<stop  offset="0.2623" style="stop-color:#F1DD80"/>
					<stop  offset="0.3672" style="stop-color:#F1DD80"/>
					<stop  offset="0.4713" style="stop-color:#DABF64"/>
					<stop  offset="0.5986" style="stop-color:#C3A348"/>
					<stop  offset="0.7253" style="stop-color:#B28E34"/>
					<stop  offset="0.8496" style="stop-color:#A88128"/>
					<stop  offset="0.9689" style="stop-color:#A57D24"/>
				</linearGradient>
				<polygon style="fill:url(#SVGID_00000095319971384207012510000009079436231577249943_);" points="961.654,851.929 
					240.445,851.929 232.465,800.899 969.634,800.899 				"/>
			</g>
			<g>
				<g>
					
						<linearGradient id="SVGID_00000035507596785458195330000010984283017247625617_" gradientUnits="userSpaceOnUse" x1="168.1738" y1="510.3999" x2="1031.8262" y2="510.3999">
						<stop  offset="0.0311" style="stop-color:#A57D24"/>
						<stop  offset="0.1291" style="stop-color:#A88128"/>
						<stop  offset="0.2311" style="stop-color:#B28E34"/>
						<stop  offset="0.3351" style="stop-color:#C3A348"/>
						<stop  offset="0.4396" style="stop-color:#DABF64"/>
						<stop  offset="0.5251" style="stop-color:#F1DD80"/>
						<stop  offset="0.7377" style="stop-color:#F1DD80"/>
						<stop  offset="0.8769" style="stop-color:#A57D24"/>
						<stop  offset="1" style="stop-color:#BA973B"/>
					</linearGradient>
					<path style="fill:url(#SVGID_00000035507596785458195330000010984283017247625617_);" d="M972.887,789.316H227.113
						l-0.361-3.968c-4.026-44.071-9.301-88.452-15.682-131.911c-5.327-36.299-11.581-72.943-18.602-108.983
						c-13.276,0.634-24.294-11.485-24.294-26.36c0-14.546,10.503-26.381,23.414-26.381c12.911,0,23.414,11.835,23.414,26.381
						c0,6.208-1.949,12.179-5.436,16.891c20.157,27.044,41.217,52.997,62.631,77.185c26.154,29.545,53.616,57.389,81.716,82.858
						c9.1-55.328,16.948-111.716,23.348-167.733c4.242-37.15,7.951-75.122,11.029-112.917c-8.553-4.067-14.268-13.543-14.268-24.273
						c0-14.546,10.503-26.381,23.414-26.381s23.414,11.835,23.414,26.381c0,8.249-3.405,15.915-9.081,20.862
						c15.382,32.956,31.776,65.182,48.76,95.839c17.097,30.862,35.254,61.018,54.049,89.76
						c14.294-51.273,27.794-103.665,40.166-155.874c11.45-48.32,28.149-128.603,34.529-159.366
						c-7.715-4.457-12.686-13.429-12.686-23.46c0-14.546,10.503-26.379,23.414-26.379c12.911,0,23.414,11.833,23.414,26.379
						c0,10.031-4.97,19.003-12.687,23.46c6.38,30.763,23.08,111.046,34.529,159.366c12.375,52.223,25.876,104.613,40.168,155.874
						c18.797-28.749,36.954-58.902,54.047-89.758c17.523-31.634,34.41-64.917,50.218-98.974c-3.886-4.825-6.067-11.122-6.067-17.728
						c0-14.546,10.503-26.381,23.414-26.381c12.911,0,23.414,11.835,23.414,26.381c0,12.66-8.007,23.307-18.614,25.813
						c3.052,37.288,6.716,74.735,10.902,111.377c6.401,56.029,14.249,112.417,23.349,167.733
						c28.106-25.475,55.567-53.318,81.716-82.858c21.443-24.221,42.536-50.221,62.733-77.322
						c-3.553-4.732-5.538-10.754-5.538-17.039c0-14.546,10.503-26.381,23.412-26.381c12.911,0,23.414,11.835,23.414,26.381
						c0,14.546-10.503,26.379-23.414,26.379c-0.275,0-0.549-0.005-0.824-0.017c-7.037,36.095-13.31,72.834-18.659,109.266
						c-6.38,43.459-11.656,87.84-15.682,131.911L972.887,789.316z M235.079,780.586h729.842
						c3.992-42.923,9.16-86.106,15.371-128.418c5.57-37.95,12.142-76.229,19.532-113.774l0.377-1.915l-0.556,0.75
						c-20.981,28.318-42.951,55.48-65.303,80.727c-28.205,31.863-57.932,61.771-88.352,88.899l-5.908,5.267l-1.303-7.806
						c-9.678-57.974-17.994-117.2-24.712-176.03c-4.353-38.1-8.145-77.069-11.271-115.824l-0.377-4.686l4.699-0.031
						c8.051-0.053,14.602-7.966,14.602-17.642c0-9.733-6.587-17.651-14.684-17.651c-8.097,0-14.684,7.918-14.684,17.651
						c0,5.378,2.019,10.403,5.54,13.785l2.242,2.155l-1.304,2.824c-16.244,35.162-33.646,69.536-51.723,102.168
						c-18.793,33.928-38.869,67.015-59.667,98.337l-5.262,7.923l-2.576-9.156c-15.282-54.303-29.695-109.964-42.84-165.438
						c-11.924-50.317-29.503-135.105-35.28-162.966l-0.764-3.69l3.538-1.296c6.14-2.249,10.428-9.192,10.428-16.887
						c0-9.732-6.587-17.649-14.684-17.649s-14.684,7.917-14.684,17.649c0,7.695,4.288,14.638,10.427,16.887l3.538,1.296l-0.764,3.69
						c-5.777,27.861-23.356,112.649-35.28,162.966c-13.141,55.459-27.554,111.121-42.838,165.438l-2.576,9.156l-5.262-7.923
						c-20.795-31.317-40.872-64.402-59.669-98.338c-17.639-31.837-34.644-65.355-50.545-99.619l-1.64-3.535l3.327-2.031
						c4.987-3.042,8.086-9.074,8.086-15.746c0-9.733-6.587-17.651-14.684-17.651c-8.097,0-14.684,7.918-14.684,17.651
						c0,8.218,4.663,15.276,11.34,17.161l3.453,0.975l-0.288,3.576c-3.137,38.968-6.946,78.154-11.323,116.47
						c-6.718,58.817-15.032,118.042-24.71,176.028l-1.303,7.807l-5.908-5.267c-30.413-27.119-60.14-57.03-88.352-88.899
						c-22.316-25.208-44.248-52.315-65.185-80.568l-0.673-0.909l0.43,2.184c7.374,37.498,13.927,75.688,19.477,113.505
						C225.92,694.48,231.088,737.662,235.079,780.586z M191.588,500.442c-8.097,0-14.684,7.918-14.684,17.651
						c0,9.733,6.587,17.651,14.684,17.651c1.043,0,2.097-0.148,3.217-0.452l3.429-0.929l-0.008-0.01l2.682-2.662
						c3.408-3.385,5.364-8.34,5.364-13.598C206.272,508.361,199.685,500.442,191.588,500.442z M1001.854,534.112l3.385,0.909
						c1.081,0.29,2.148,0.437,3.173,0.437c8.097,0,14.684-7.917,14.684-17.649c0-9.733-6.587-17.651-14.684-17.651
						c-8.096,0-14.682,7.918-14.682,17.651c0,5.322,1.988,10.314,5.456,13.699L1001.854,534.112z"/>
				</g>
				<g>
					
						<linearGradient id="SVGID_00000165948525455663921020000003573291643871785359_" gradientUnits="userSpaceOnUse" x1="227.3655" y1="826.4149" x2="974.7335" y2="826.4149">
						<stop  offset="0.0311" style="stop-color:#A57D24"/>
						<stop  offset="0.1291" style="stop-color:#A88128"/>
						<stop  offset="0.2311" style="stop-color:#B28E34"/>
						<stop  offset="0.3351" style="stop-color:#C3A348"/>
						<stop  offset="0.4396" style="stop-color:#DABF64"/>
						<stop  offset="0.5251" style="stop-color:#F1DD80"/>
						<stop  offset="0.7377" style="stop-color:#F1DD80"/>
						<stop  offset="0.8769" style="stop-color:#A57D24"/>
						<stop  offset="1" style="stop-color:#BA973B"/>
					</linearGradient>
					<path style="fill:url(#SVGID_00000165948525455663921020000003573291643871785359_);" d="M965.39,856.295h-728.68
						l-9.344-59.759h747.368L965.39,856.295z M244.181,847.565h713.737l6.616-42.299H237.565L244.181,847.565z"/>
				</g>
			</g>
		</g>
	</g>
</g>
</svg>
